<?xml version="1.0" encoding="UTF-8"?>
<svg version="1.1" xmlns="http://www.w3.org/2000/svg" width="512" height="512">
<path d="M0 0 C168.96 0 337.92 0 512 0 C512 168.96 512 337.92 512 512 C343.04 512 174.08 512 0 512 C0 343.04 0 174.08 0 0 Z " fill="#2D3E50" transform="translate(0,0)"/>
<path d="M0 0 C1.93153931 0.00410889 1.93153931 0.00410889 3.90209961 0.00830078 C25.99848183 0.25052157 25.99848183 0.25052157 35 5.3125 C35 5.9725 35 6.6325 35 7.3125 C35.886875 7.43625 36.77375 7.56 37.6875 7.6875 C40.7284206 8.2612586 43.22337139 8.96385182 46 10.3125 C46.33 10.9725 46.66 11.6325 47 12.3125 C48.92186814 13.25657558 50.8442454 14.19963272 52.76953125 15.13671875 C65.31533346 21.75018016 78.71529053 34.10072634 84 47.3125 C84.66 47.6425 85.32 47.9725 86 48.3125 C87.57548683 50.93831138 88 52.18349787 88 55.3125 C88.66 55.3125 89.32 55.3125 90 55.3125 C92.37534772 60.38167782 93.72034214 65.05231121 94.625 70.5625 C95.53765906 76.00072004 95.53765906 76.00072004 97 81.3125 C97.09776117 82.91992694 97.13921754 84.53107158 97.14717102 86.14144897 C97.15790398 87.63400208 97.15790398 87.63400208 97.16885376 89.15670776 C97.17154266 90.24758698 97.17423157 91.33846619 97.17700195 92.46240234 C97.18357315 93.61238708 97.19014435 94.76237183 97.19691467 95.94720459 C97.21667006 99.76428288 97.22831858 103.58132167 97.23828125 107.3984375 C97.24235678 108.70336781 97.2464323 110.00829811 97.25063133 111.35277176 C97.26968893 117.55338288 97.28391251 123.75398213 97.2922433 129.9546169 C97.30198477 137.08602165 97.32822018 144.21711345 97.36874419 151.3484081 C97.39905655 156.87474319 97.41372682 162.40098944 97.41702431 167.92740595 C97.41935986 171.22049528 97.43013948 174.51317724 97.45348549 177.80619431 C97.47799358 181.4939285 97.47688949 185.18086061 97.4699707 188.86865234 C97.48918579 190.4746077 97.48918579 190.4746077 97.50878906 192.11300659 C97.45488803 200.05580636 95.66227635 206.85026875 93 214.3125 C92.01 214.3125 91.02 214.3125 90 214.3125 C89.88527344 214.88484375 89.77054688 215.4571875 89.65234375 216.046875 C88.93817644 218.52721656 87.92692128 220.37618697 86.5625 222.5625 C86.13066406 223.26890625 85.69882812 223.9753125 85.25390625 224.703125 C84.63322266 225.49976563 84.63322266 225.49976563 84 226.3125 C83.34 226.3125 82.68 226.3125 82 226.3125 C81.9690625 227.364375 81.9690625 227.364375 81.9375 228.4375 C80.72727404 232.1488596 78.82834332 233.45597475 75.83203125 235.8359375 C73.79791053 237.41554365 73.79791053 237.41554365 71.4375 239.9375 C64.89473684 246.3125 64.89473684 246.3125 60 246.3125 C60 247.3025 60 248.2925 60 249.3125 C59.34 249.3125 58.68 249.3125 58 249.3125 C58 249.9725 58 250.6325 58 251.3125 C56.56705502 252.15364171 55.12845595 252.98515687 53.6875 253.8125 C52.88699219 254.2765625 52.08648437 254.740625 51.26171875 255.21875 C49 256.3125 49 256.3125 46 256.3125 C46 256.9725 46 257.6325 46 258.3125 C44.58461283 258.65122513 43.16762037 258.98324624 41.75 259.3125 C40.96109375 259.498125 40.1721875 259.68375 39.359375 259.875 C37 260.3125 37 260.3125 33 260.3125 C33 260.9725 33 261.6325 33 262.3125 C28.49646738 264.06997614 24.82360189 264.50544408 20 264.3125 C20 264.9725 20 265.6325 20 266.3125 C14.8079737 266.38745152 9.61627213 266.44147508 4.42382812 266.47729492 C2.66270451 266.49224968 0.90161726 266.51262096 -0.859375 266.53881836 C-13.05232866 266.71547763 -23.57477365 266.01933542 -35 261.3125 C-35 260.6525 -35 259.9925 -35 259.3125 C-35.825 259.23 -36.65 259.1475 -37.5 259.0625 C-41.76753921 258.14802731 -45.19236894 256.39026822 -49 254.3125 C-49 253.6525 -49 252.9925 -49 252.3125 C-49.87785156 252.126875 -49.87785156 252.126875 -50.7734375 251.9375 C-58.8350425 249.67459333 -65.09383025 242.89281211 -71 237.3125 C-71.81210938 236.56226563 -71.81210938 236.56226563 -72.640625 235.796875 C-74.63514998 233.89847171 -76.10409635 232.13466874 -77.5 229.75 C-78.88254357 227.16597784 -78.88254357 227.16597784 -81.4375 225.5 C-84.40762327 222.96452892 -85.54574006 220.63487348 -87.10546875 217.1171875 C-87.97197637 215.12751228 -87.97197637 215.12751228 -90 213.3125 C-92.02554337 207.12333969 -93.01588932 200.80403276 -92 194.3125 C-89.47429367 190.89938333 -88.00086696 189.64612232 -84 188.3125 C-84 187.6525 -84 186.9925 -84 186.3125 C-77.63404867 182.99113409 -72.00125071 182.59937607 -64.91796875 183.609375 C-60.24469637 185.32259094 -57.01006756 190.43843618 -54.73046875 194.66796875 C-53.74918978 196.86206443 -52.85036404 199.06480409 -52 201.3125 C-51.38125 202.8284375 -51.38125 202.8284375 -50.75 204.375 C-50.5025 205.014375 -50.255 205.65375 -50 206.3125 C-49.34 206.3125 -48.68 206.3125 -48 206.3125 C-45 210.69711538 -45 210.69711538 -45 213.3125 C-44.278125 213.395 -43.55625 213.4775 -42.8125 213.5625 C-39.42449019 214.46596928 -37.71474554 216.12746091 -35 218.3125 C-31.82078213 219.56806887 -31.82078213 219.56806887 -29 220.3125 C-29 220.9725 -29 221.6325 -29 222.3125 C-26.69 222.6425 -24.38 222.9725 -22 223.3125 C-22 223.9725 -22 224.6325 -22 225.3125 C-20.68 225.6425 -19.36 225.9725 -18 226.3125 C-18 226.9725 -18 227.6325 -18 228.3125 C-16.7934375 228.2815625 -16.7934375 228.2815625 -15.5625 228.25 C-13 228.3125 -13 228.3125 -12 229.3125 C-7.84060164 229.59680022 -3.66793501 229.54445699 0.5 229.5625 C1.66015625 229.583125 2.8203125 229.60375 4.015625 229.625 C10.1939553 229.65295625 15.37304884 229.33728123 21.11523438 226.95996094 C23 226.3125 23 226.3125 27 226.3125 C27 225.6525 27 224.9925 27 224.3125 C30.465 223.3225 30.465 223.3225 34 222.3125 C34 221.6525 34 220.9925 34 220.3125 C34.86238281 220.10238281 35.72476563 219.89226562 36.61328125 219.67578125 C40.79611342 217.9920345 43.11801044 215.71732303 46.1875 212.5 C46.70763672 211.97857422 47.22777344 211.45714844 47.76367188 210.91992188 C50.10230478 208.5275273 51.95812871 206.38306629 53.67578125 203.48828125 C55 201.3125 55 201.3125 58 200.3125 C58.99455909 197.32882274 59.19559632 195.1120808 59.31640625 191.98828125 C59.35830078 190.96025391 59.40019531 189.93222656 59.44335938 188.87304688 C59.48267578 187.80119141 59.52199219 186.72933594 59.5625 185.625 C59.60568359 184.54154297 59.64886719 183.45808594 59.69335938 182.34179688 C59.79946838 179.66549209 59.90152361 176.98909474 60 174.3125 C59.01 174.3125 58.02 174.3125 57 174.3125 C56.67 175.3025 56.34 176.2925 56 177.3125 C54.35 177.6425 52.7 177.9725 51 178.3125 C51 178.9725 51 179.6325 51 180.3125 C50.34 180.3125 49.68 180.3125 49 180.3125 C49 180.9725 49 181.6325 49 182.3125 C37.24897464 188.78484806 25.24172031 192.48252947 11.79296875 192.4453125 C10.64396843 192.44674759 10.64396843 192.44674759 9.47175598 192.44821167 C7.86406369 192.44888863 6.25636859 192.44706829 4.64868164 192.44287109 C2.17783578 192.43747891 -0.29283134 192.44285124 -2.76367188 192.44921875 C-4.3281254 192.44855861 -5.89257882 192.44727876 -7.45703125 192.4453125 C-8.56942924 192.44834885 -8.56942924 192.44834885 -9.70429993 192.45144653 C-14.88502358 192.42747642 -14.88502358 192.42747642 -16 191.3125 C-17.63913279 190.98526841 -19.28698639 190.70139699 -20.9375 190.4375 C-26.448685 189.48530573 -31.68677151 188.04131621 -37 186.3125 C-37 185.6525 -37 184.9925 -37 184.3125 C-37.57621094 184.18617188 -38.15242188 184.05984375 -38.74609375 183.9296875 C-41.02140507 183.30663865 -42.9525036 182.48639995 -45.0625 181.4375 C-45.73410156 181.11007812 -46.40570313 180.78265625 -47.09765625 180.4453125 C-49.08958143 179.25915582 -50.50975544 178.08593745 -52 176.3125 C-52 175.6525 -52 174.9925 -52 174.3125 C-53.24910156 174.03019531 -53.24910156 174.03019531 -54.5234375 173.7421875 C-59.16491957 171.83344319 -62.07193433 168.91270964 -65.625 165.4375 C-66.27984375 164.81230469 -66.9346875 164.18710937 -67.609375 163.54296875 C-69.41805272 161.81117814 -71.21010073 160.06365108 -73 158.3125 C-73.78890625 157.56097656 -74.5778125 156.80945313 -75.390625 156.03515625 C-77.31667884 153.97353066 -78.0099984 151.92893281 -79 149.3125 C-79.66 148.9825 -80.32 148.6525 -81 148.3125 C-81 146.9925 -81 145.6725 -81 144.3125 C-81.66 144.3125 -82.32 144.3125 -83 144.3125 C-88.67611961 134.42581626 -92.94212509 122.85353241 -92 111.3125 C-92.66 111.3125 -93.32 111.3125 -94 111.3125 C-95.02151261 76.96767436 -95.02151261 76.96767436 -89 62.3125 C-88.43942462 60.83506517 -87.88346738 59.35587023 -87.33203125 57.875 C-86.89246094 56.699375 -86.45289063 55.52375 -86 54.3125 C-85.34 54.3125 -84.68 54.3125 -84 54.3125 C-83.896875 53.77625 -83.79375 53.24 -83.6875 52.6875 C-81.90971842 46.54607273 -78.28964164 41.02035183 -74 36.3125 C-73.34 36.3125 -72.68 36.3125 -72 36.3125 C-71.7525 35.755625 -71.505 35.19875 -71.25 34.625 C-65.55464447 24.08859227 -52.90264842 14.83311032 -42 10.3125 C-41.01 10.3125 -40.02 10.3125 -39 10.3125 C-39 9.6525 -39 8.9925 -39 8.3125 C-36.36 7.9825 -33.72 7.6525 -31 7.3125 C-31 6.6525 -31 5.9925 -31 5.3125 C-29.66809481 4.85003292 -28.3343693 4.39280845 -27 3.9375 C-26.2575 3.68226562 -25.515 3.42703125 -24.75 3.1640625 C-23.8425 2.88304688 -22.935 2.60203125 -22 2.3125 C-20.865625 1.95542969 -19.73125 1.59835938 -18.5625 1.23046875 C-12.46865116 -0.2530525 -6.23491237 -0.02647521 0 0 Z " fill="#FBFBFB" transform="translate(255,123.6875)"/>
<path d="M0 0 C0.85875732 0.00257813 1.71751465 0.00515625 2.60229492 0.0078125 C9.77099477 0.17431671 16.61422364 1.02357948 23 4.4375 C23 5.0975 23 5.7575 23 6.4375 C23.99 6.47875 24.98 6.52 26 6.5625 C33.4961582 7.66576522 38.64216083 13.80001832 43.2578125 19.3515625 C44.4642006 20.79598234 45.71257793 22.20596639 46.9921875 23.5859375 C47.63414062 24.27945313 48.27609375 24.97296875 48.9375 25.6875 C49.52402344 26.31140625 50.11054688 26.9353125 50.71484375 27.578125 C52 29.4375 52 29.4375 52 33.4375 C52.66 33.4375 53.32 33.4375 54 33.4375 C54.20496094 34.00339844 54.40992188 34.56929687 54.62109375 35.15234375 C54.89050781 35.88582031 55.15992188 36.61929688 55.4375 37.375 C55.70433594 38.10589844 55.97117187 38.83679688 56.24609375 39.58984375 C56.85386948 41.42055678 56.85386948 41.42055678 58 42.4375 C58.08783542 44.65605264 58.10694609 46.87738496 58.09765625 49.09765625 C58.0962413 49.76212265 58.09482635 50.42658905 58.09336853 51.1111908 C58.08775518 53.24083899 58.07520054 55.37038339 58.0625 57.5 C58.05748671 58.94075369 58.05292351 60.38150903 58.04882812 61.82226562 C58.03778145 65.36071102 58.02050792 68.89909539 58 72.4375 C57.34 72.4375 56.68 72.4375 56 72.4375 C55.34 75.7375 54.68 79.0375 54 82.4375 C53.34 82.4375 52.68 82.4375 52 82.4375 C51.9175 83.13875 51.835 83.84 51.75 84.5625 C50.17585605 90.59671848 45.79895919 95.00182703 41.5 99.3125 C41.02691406 99.81007813 40.55382812 100.30765625 40.06640625 100.8203125 C38.65625 102.2421875 38.65625 102.2421875 36 104.4375 C34.68 104.4375 33.36 104.4375 32 104.4375 C31.66162109 105.60539062 31.66162109 105.60539062 31.31640625 106.796875 C29.651292 110.13698549 28.41049178 110.50818193 24.9375 111.6875 C21.70742601 112.62726119 21.70742601 112.62726119 19 114.4375 C17.00041636 114.47830783 14.99954746 114.48004356 13 114.4375 C13 115.0975 13 115.7575 13 116.4375 C9.04181074 116.52571107 5.08387938 116.57829412 1.125 116.625 C0.01640625 116.65013672 -1.0921875 116.67527344 -2.234375 116.70117188 C-17.9714328 116.84002827 -29.42032121 110.80318021 -41 100.4375 C-46.48473725 95.03906106 -50.78605791 89.43725999 -54 82.4375 C-54.39316406 81.64859375 -54.78632813 80.8596875 -55.19140625 80.046875 C-60.36941742 67.70624908 -60.2923086 50.4251343 -55.5 37.9375 C-54.70670917 36.08648806 -53.8904264 34.24379355 -53 32.4375 C-52.34 32.4375 -51.68 32.4375 -51 32.4375 C-51 31.4475 -51 30.4575 -51 29.4375 C-50.34 29.4375 -49.68 29.4375 -49 29.4375 C-48.7525 28.880625 -48.505 28.32375 -48.25 27.75 C-46.78224216 25.034648 -44.93395084 22.84028741 -43 20.4375 C-42.319375 19.1690625 -42.319375 19.1690625 -41.625 17.875 C-39.57322762 14.79734143 -37.10176562 13.39296093 -34 11.4375 C-33.67 10.7775 -33.34 10.1175 -33 9.4375 C-32.34 9.4375 -31.68 9.4375 -31 9.4375 C-31 8.7775 -31 8.1175 -31 7.4375 C-30.01 7.4375 -29.02 7.4375 -28 7.4375 C-28 6.7775 -28 6.1175 -28 5.4375 C-18.64325288 2.00383133 -10.01786592 -0.04295289 0 0 Z " fill="#2E3F51" transform="translate(257,161.5625)"/>
<path d="M0 0 C2.0836309 0.14151828 4.16689938 0.28837936 6.25 0.4375 C7.99023438 0.55931641 7.99023438 0.55931641 9.765625 0.68359375 C13 1 13 1 14.96722412 1.51268005 C18.35236204 2.32420347 21.8036638 2.12095817 25.265625 2.09765625 C26.05902283 2.0962413 26.85242065 2.09482635 27.66986084 2.09336853 C30.19661272 2.08778415 32.72327504 2.07523454 35.25 2.0625 C36.96614455 2.05748298 38.68229049 2.05292043 40.3984375 2.04882812 C44.59899269 2.03781984 48.79948117 2.02056596 53 2 C53 2.33 53 2.66 53 3 C48.24250879 3.94057007 43.62534378 4.14618522 38.79296875 4.1328125 C37.64396843 4.13424759 37.64396843 4.13424759 36.47175598 4.13571167 C34.86406369 4.13638863 33.25636859 4.13456829 31.64868164 4.13037109 C29.17783578 4.12497891 26.70716866 4.13035124 24.23632812 4.13671875 C22.6718746 4.13605861 21.10742118 4.13477876 19.54296875 4.1328125 C18.43057076 4.13584885 18.43057076 4.13584885 17.29570007 4.13894653 C12.11497642 4.11497642 12.11497642 4.11497642 11 3 C9.15400312 2.60545777 7.29774178 2.25823134 5.4375 1.9375 C3.91962891 1.67259766 3.91962891 1.67259766 2.37109375 1.40234375 C1.58863281 1.26957031 0.80617187 1.13679688 0 1 C0 0.67 0 0.34 0 0 Z " fill="#D2D6DC" transform="translate(228,312)"/>
<path d="M0 0 C-7.54685108 3.03959252 -14.09968186 3.42705833 -22.1875 3.3125 C-23.91129883 3.31733398 -23.91129883 3.31733398 -25.66992188 3.32226562 C-31.26540523 3.2866256 -35.71033859 2.97520665 -41 1 C-41 0.67 -41 0.34 -41 0 C-39.60427948 -0.02736707 -38.20839779 -0.04655989 -36.8125 -0.0625 C-36.03519531 -0.07410156 -35.25789062 -0.08570313 -34.45703125 -0.09765625 C-32 0 -32 0 -29.578125 0.4921875 C-21.22701295 2.13710351 -12.61449987 1.01194501 -4.36328125 -0.66015625 C-2 -1 -2 -1 0 0 Z " fill="#8C95A0" transform="translate(278,351)"/>
<path d="M0 0 C0.66 0.33 1.32 0.66 2 1 C0.73965413 2.50882261 -0.53363649 4.00684044 -1.8125 5.5 C-2.52019531 6.3353125 -3.22789062 7.170625 -3.95703125 8.03125 C-6 10 -6 10 -9 10 C-9.10441406 10.59296875 -9.20882812 11.1859375 -9.31640625 11.796875 C-10.1005641 14.32410372 -11.05054524 15.4230218 -12.9375 17.25 C-13.46214844 17.77078125 -13.98679688 18.2915625 -14.52734375 18.828125 C-16 20 -16 20 -18 20 C-18.103125 20.639375 -18.20625 21.27875 -18.3125 21.9375 C-18.539375 22.618125 -18.76625 23.29875 -19 24 C-19.99 24.33 -20.98 24.66 -22 25 C-20.50592885 20.2687747 -20.50592885 20.2687747 -18 18.9375 C-17.01 18.4734375 -17.01 18.4734375 -16 18 C-14.94978897 16.15028304 -14.94978897 16.15028304 -14 14 C-11.11007744 9.88741789 -7.60755852 6.78680923 -3.8046875 3.55078125 C-1.92288746 1.97318991 -1.92288746 1.97318991 0 0 Z " fill="#BFC4CA" transform="translate(199,142)"/>
<path d="M0 0 C1.34243265 0.01509628 2.68488201 0.02877582 4.02734375 0.04101562 C7.26866944 0.07599396 10.50910662 0.12507663 13.75 0.1875 C13.75 0.5175 13.75 0.8475 13.75 1.1875 C13.02409668 1.20731934 12.29819336 1.22713867 11.55029297 1.24755859 C8.24151525 1.3431819 4.9333367 1.45271007 1.625 1.5625 C0.48289062 1.5934375 -0.65921875 1.624375 -1.8359375 1.65625 C-2.94453125 1.69492188 -4.053125 1.73359375 -5.1953125 1.7734375 C-6.21125488 1.8048584 -7.22719727 1.8362793 -8.27392578 1.86865234 C-11.49793098 2.21406258 -14.2033497 3.10273995 -17.25 4.1875 C-19.20079406 4.45745323 -21.1608672 4.66878297 -23.125 4.8125 C-24.09179688 4.88726562 -25.05859375 4.96203125 -26.0546875 5.0390625 C-27.14136719 5.11253906 -27.14136719 5.11253906 -28.25 5.1875 C-27.25 3.1875 -27.25 3.1875 -25.06347656 2.3425293 C-16.61505005 0.12174762 -8.70334842 -0.17056813 0 0 Z " fill="#B8BEC4" transform="translate(256.25,123.8125)"/>
<path d="M0 0 C0.268125 0.556875 0.53625 1.11375 0.8125 1.6875 C1.95550878 4.04602745 1.95550878 4.04602745 3.5559082 6.20385742 C5.36292391 9.70271641 5.34308 12.12540006 5.29296875 16.05078125 C5.28872391 16.70958786 5.28447906 17.36839447 5.28010559 18.04716492 C5.26341196 20.13603885 5.22578058 22.22392139 5.1875 24.3125 C5.17244097 25.73501203 5.15875469 27.1575393 5.14648438 28.58007812 C5.11354003 32.05370351 5.06182408 35.52675487 5 39 C4.67 39 4.34 39 4 39 C3.98541748 38.28980713 3.97083496 37.57961426 3.95581055 36.84790039 C3.88068375 33.58559222 3.78423867 30.32423602 3.6875 27.0625 C3.66494141 25.94552734 3.64238281 24.82855469 3.61914062 23.67773438 C3.42424951 17.63610966 2.88485242 12.45074311 0.65039062 6.80859375 C-0.18251686 4.49246063 -0.23584098 2.43702346 0 0 Z " fill="#939BA5" transform="translate(310,195)"/>
<path d="M0 0 C0.99 0 1.98 0 3 0 C3.11622939 3.74973906 3.1872595 7.49901464 3.25 11.25 C3.28351563 12.31347656 3.31703125 13.37695312 3.3515625 14.47265625 C3.36445313 15.49746094 3.37734375 16.52226562 3.390625 17.578125 C3.41157227 18.52075195 3.43251953 19.46337891 3.45410156 20.43457031 C2.87271731 23.71907875 1.50740841 24.89169466 -1 27 C-2.24546405 24.50907189 -1.7767578 23.58919267 -1 21 C-0.34 21 0.32 21 1 21 C1 15.06 1 9.12 1 3 C0.34 2.67 -0.32 2.34 -1 2 C-0.67 1.34 -0.34 0.68 0 0 Z " fill="#87919B" transform="translate(312,298)"/>
<path d="M0 0 C6.93302093 -0.22731216 13.2168636 0.57997892 20 2 C20 2.33 20 2.66 20 3 C17.79194476 3.0544452 15.58349446 3.09299283 13.375 3.125 C12.14523438 3.14820313 10.91546875 3.17140625 9.6484375 3.1953125 C6.05683959 3.0030428 3.33338825 2.30258556 0 1 C0 0.67 0 0.34 0 0 Z " fill="#959EA8" transform="translate(237,351)"/>
<path d="M0 0 C0 3 0 3 -1.71484375 4.75390625 C-2.44832031 5.35074219 -3.18179687 5.94757813 -3.9375 6.5625 C-6.92648955 8.91285524 -6.92648955 8.91285524 -9 12 C-11.0625 12.625 -11.0625 12.625 -13 13 C-12.3125 10.625 -12.3125 10.625 -11 8 C-9.34302621 7.30959426 -7.6744239 6.6469365 -6 6 C-3.84371684 4.11769164 -1.95908775 2.09576829 0 0 Z " fill="#969DA7" transform="translate(300,258)"/>
<path d="M0 0 C-2.55068845 2.35448165 -3.71017358 2.98327924 -7.25 3.1875 C-8.61125 3.0946875 -8.61125 3.0946875 -10 3 C-10 3.66 -10 4.32 -10 5 C-12.97 5 -15.94 5 -19 5 C-19 4.67 -19 4.34 -19 4 C-17.865625 3.855625 -16.73125 3.71125 -15.5625 3.5625 C-12.19222799 3.38828522 -12.19222799 3.38828522 -11 2 C-9.33382885 1.95936168 -7.66611905 1.957279 -6 2 C-6 1.34 -6 0.68 -6 0 C-2.25 -1.125 -2.25 -1.125 0 0 Z " fill="#7B8591" transform="translate(294,384)"/>
<path d="M0 0 C1.32 0.66 2.64 1.32 4 2 C3.01 3.98 2.02 5.96 1 8 C0.01 7.67 -0.98 7.34 -2 7 C-2.125 4.625 -2.125 4.625 -2 2 C-1.34 1.34 -0.68 0.68 0 0 Z " fill="#3A4A5B" transform="translate(171,167)"/>
<path d="M0 0 C0.33 0.99 0.66 1.98 1 3 C1.66 3 2.32 3 3 3 C6.07692308 9.4 6.07692308 9.4 5.6875 12.4375 C5.460625 12.953125 5.23375 13.46875 5 14 C5 13.34 5 12.68 5 12 C4.34 12 3.68 12 3 12 C1.82923301 8.01939223 0.74250597 4.08378283 0 0 Z " fill="#A3ABB2" transform="translate(342,176)"/>
<path d="M0 0 C0.66 0.33 1.32 0.66 2 1 C2 1.99 2 2.98 2 4 C-1 6.1875 -1 6.1875 -4 8 C-4.99 7.34 -5.98 6.68 -7 6 C-6.030625 5.38125 -5.06125 4.7625 -4.0625 4.125 C-0.97164638 2.34321154 -0.97164638 2.34321154 0 0 Z " fill="#475666" transform="translate(224,171)"/>
<path d="M0 0 C1.32 0 2.64 0 4 0 C4 0.66 4 1.32 4 2 C5.093125 2.103125 6.18625 2.20625 7.3125 2.3125 C10.85559629 2.97307727 11.93243723 3.2027092 14 6 C8.65155992 5.46515599 4.64203897 3.53309233 0 1 C0 0.67 0 0.34 0 0 Z " fill="#C2C7CC" transform="translate(206,377)"/>
<path d="M0 0 C1.875 0.125 1.875 0.125 4 1 C4.70381157 2.98723268 5.3711811 4.98777953 6 7 C6.99 7.33 7.98 7.66 9 8 C7.68 8.33 6.36 8.66 5 9 C2 4.25 2 4.25 2 2 C1.34 2 0.68 2 0 2 C0 1.34 0 0.68 0 0 Z " fill="#9199A3" transform="translate(205,328)"/>
<path d="M0 0 C1.32 0 2.64 0 4 0 C4 0.66 4 1.32 4 2 C6.31 2.33 8.62 2.66 11 3 C11 3.66 11 4.32 11 5 C8.36 4.67 5.72 4.34 3 4 C2.67 3.01 2.34 2.02 2 1 C1.34 0.67 0.68 0.34 0 0 Z " fill="#9EA6AE" transform="translate(222,344)"/>
<path d="M0 0 C0.66 0 1.32 0 2 0 C0.52307692 6.52307692 0.52307692 6.52307692 -2.125 8.9375 C-2.74375 9.288125 -3.3625 9.63875 -4 10 C-2.8905928 6.51329166 -1.73662334 3.22515763 0 0 Z " fill="#929BA5" transform="translate(345,338)"/>
<path d="M0 0 C-1.65 0.33 -3.3 0.66 -5 1 C-5.33 1.99 -5.66 2.98 -6 4 C-7.65 4 -9.3 4 -11 4 C-8.94006922 -0.11986157 -4.11800376 -1.37266792 0 0 Z " fill="#A7AFB7" transform="translate(287,272)"/>
<path d="M0 0 C8.56097561 4.12195122 8.56097561 4.12195122 10 7 C9.46375 6.71125 8.9275 6.4225 8.375 6.125 C5.64719516 4.83288192 2.87387282 3.91441408 0 3 C0 2.01 0 1.02 0 0 Z " fill="#949DA6" transform="translate(285,169)"/>
<path d="M0 0 C0.33 0.99 0.66 1.98 1 3 C1.99 3 2.98 3 4 3 C4.33 5.31 4.66 7.62 5 10 C2.9754262 8.06745228 1.57894208 6.36841312 0 4 C0 2.68 0 1.36 0 0 Z " fill="#8D96A1" transform="translate(200,318)"/>
</svg>
